<?xml version="1.0" encoding="UTF-8" standalone="no"?>
<!-- Generator: Adobe Illustrator 27.5.0, SVG Export Plug-In . SVG Version: 6.00 Build 0)  -->

<svg
   version="1.1"
   x="0px"
   y="0px"
   viewBox="0 0 2200 2200"
   xml:space="preserve"
   id="svg12"
   sodipodi:docname="app_icon_source.svg"
   style="enable-background:new 0 0 2200 2200;"
   inkscape:version="1.4.2 (ebf0e940d0, 2025-05-08)"
   xmlns:inkscape="http://www.inkscape.org/namespaces/inkscape"
   xmlns:sodipodi="http://sodipodi.sourceforge.net/DTD/sodipodi-0.dtd"
   xmlns="http://www.w3.org/2000/svg"
   xmlns:svg="http://www.w3.org/2000/svg"><defs
   id="defs12" /><sodipodi:namedview
   id="namedview12"
   pagecolor="#ffffff"
   bordercolor="#000000"
   borderopacity="0.25"
   inkscape:showpageshadow="2"
   inkscape:pageopacity="0.0"
   inkscape:pagecheckerboard="0"
   inkscape:deskcolor="#d1d1d1"
   inkscape:zoom="0.40227273"
   inkscape:cx="1505.1977"
   inkscape:cy="1162.1469"
   inkscape:window-width="1920"
   inkscape:window-height="1155"
   inkscape:window-x="0"
   inkscape:window-y="45"
   inkscape:window-maximized="1"
   inkscape:current-layer="svg12" />

<rect
   style="fill:#7dd3a0;opacity:1"
   x="0"
   y="0"
   width="2200"
   height="2200"
   id="background"
   inkscape:label="background" />
<g
   id="Objects"
   transform="matrix(1.3241142,0,0,1.3241142,-356.5257,-356.5257)">
	<g
   id="g12">
		<path
   style="fill:#52b883;stroke-width:1.00288;opacity:1"
   d="m 1930.7441,1218.707 V 1930.744 H 1223.0655 L 577.75607,1280.718 c -13.27022,-11.924 -24.67271,-37.224 -32.55397,-70.84 l -69.87434,-69.591 c -2.28713,-1.676 -4.13374,-3.96 -5.26121,-6.693 -2.8886,-7.035 -5.84055,-18.041 -5.84055,-33.594 0,-15.564 2.95296,-26.56 5.84055,-33.584 2.42694,-5.903 8.19205,-9.768 14.60186,-9.768 h 50.64489 c 6.37763,-83.084 30.68524,-144.935 59.70693,-144.935 h 46.77969 c 12.86288,-29.837 28.89295,-47.547 46.26472,-47.547 h 45.21269 c 13.56089,-25.247 29.47227,-39.786 46.50108,-39.786 h 82.56522 c 10.2539,0 20.10951,5.295 29.29024,15.02 l 218.53513,217.248 h 146.1595 c 6.7749,-131.624 43.8921,-232.268 88.6743,-232.268 h 82.5653 c 10.2639,0 20.1205,5.295 29.3113,15.031 l 24.9624,24.755 h 37.439 c 8.868,0 17.3829,4.622 25.3064,13.109 l 34.7013,34.438 h 33.0367 c 7.2366,0 14.1724,3.843 20.6144,10.899 z"
   id="path2"
   inkscape:label="shadow" />
		<g
   id="g11">
			<path
   style="fill:#d6e5e5"
   d="m 545.446,1143.356 h -60.891 c -6.375,0 -12.107,-3.865 -14.518,-9.765 -2.873,-7.032 -5.816,-18.034 -5.816,-33.594 0,-15.559 2.943,-26.562 5.816,-33.586 2.412,-5.899 8.143,-9.765 14.518,-9.765 h 59.653 z"
   id="path3" />
			<path
   style="fill:#d6e5e5"
   d="m 1654.554,1143.356 h 60.891 c 6.375,0 12.106,-3.865 14.518,-9.765 2.873,-7.032 5.816,-18.034 5.816,-33.594 0,-15.559 -2.943,-26.562 -5.816,-33.586 -2.412,-5.899 -8.143,-9.765 -14.518,-9.765 h -59.653 z"
   id="path4" />
			<path
   style="fill:#3c4f56"
   d="m 650.342,911.715 h -56.078 c -33.683,0 -60.989,84.298 -60.989,188.285 0,103.987 27.306,188.285 60.989,188.285 h 56.078 z"
   id="path5" />
			<path
   style="fill:#455a60"
   d="m 757.013,864.172 h -70.238 c -42.189,0 -76.389,105.584 -76.389,235.828 0,130.244 34.201,235.828 76.389,235.828 h 70.238 z"
   id="path6" />
			<path
   style="fill:#3c4f56"
   d="m 860.052,824.381 h -82.089 c -49.307,0 -89.278,123.399 -89.278,275.619 0,152.22 39.971,275.619 89.278,275.619 h 82.089 z"
   id="path7" />
			<ellipse
   style="fill:#324249"
   cx="860.052"
   cy="1100"
   rx="89.278"
   ry="275.61899"
   id="ellipse7" />
			<path
   style="fill:#3c4f56"
   d="m 1549.658,911.715 h 56.078 c 33.683,0 60.989,84.298 60.989,188.285 0,103.987 -27.306,188.285 -60.989,188.285 h -56.078 z"
   id="path8" />
			<path
   style="fill:#455a60"
   d="m 1442.987,864.172 h 70.238 c 42.188,0 76.389,105.584 76.389,235.828 0,130.244 -34.201,235.828 -76.389,235.828 h -70.238 z"
   id="path9" />
			<path
   style="fill:#3c4f56"
   d="m 1339.948,824.381 h 82.089 c 49.307,0 89.278,123.399 89.278,275.619 0,152.22 -39.971,275.619 -89.278,275.619 h -82.089 z"
   id="path10" />
			<ellipse
   style="fill:#324249"
   cx="1339.948"
   cy="1100"
   rx="89.278"
   ry="275.61899"
   id="ellipse10" />
			<path
   style="fill:#d6e5e5"
   d="m 1351.154,1099.998 c 0,15.56 -2.943,26.562 -5.816,33.594 -2.412,5.899 -8.143,9.765 -14.518,9.765 H 869.179 c -6.375,0 -12.107,-3.865 -14.518,-9.765 -2.873,-7.032 -5.816,-18.034 -5.816,-33.594 0,-15.559 2.943,-26.562 5.816,-33.586 2.411,-5.899 8.143,-9.765 14.518,-9.765 h 461.641 c 6.375,0 12.106,3.865 14.518,9.765 2.873,7.025 5.816,18.027 5.816,33.586 z"
   id="path11" />
		</g>
	</g>
</g>
</svg>
